<?xml version="1.0" standalone="no"?>
<svg xmlns:xlink="http://www.w3.org/1999/xlink" id="wave" style="transform:rotate(0deg); transition: 0.3s" viewBox="0 0 1440 420" version="1.1" xmlns="http://www.w3.org/2000/svg"><defs><linearGradient id="sw-gradient-0" x1="0" x2="0" y1="1" y2="0"><stop stop-color="rgba(243, 106, 62, 1)" offset="0%"/><stop stop-color="rgba(255, 179, 11, 1)" offset="100%"/></linearGradient></defs><path style="transform:translate(0, 0px); opacity:1" fill="url(#sw-gradient-0)" d="M0,0L30,49C60,98,120,196,180,224C240,252,300,210,360,161C420,112,480,56,540,70C600,84,660,168,720,189C780,210,840,168,900,189C960,210,1020,294,1080,301C1140,308,1200,238,1260,189C1320,140,1380,112,1440,133C1500,154,1560,224,1620,210C1680,196,1740,98,1800,98C1860,98,1920,196,1980,238C2040,280,2100,266,2160,273C2220,280,2280,308,2340,329C2400,350,2460,364,2520,329C2580,294,2640,210,2700,182C2760,154,2820,182,2880,203C2940,224,3000,238,3060,259C3120,280,3180,308,3240,287C3300,266,3360,196,3420,140C3480,84,3540,42,3600,70C3660,98,3720,196,3780,224C3840,252,3900,210,3960,210C4020,210,4080,252,4140,252C4200,252,4260,210,4290,189L4320,168L4320,420L4290,420C4260,420,4200,420,4140,420C4080,420,4020,420,3960,420C3900,420,3840,420,3780,420C3720,420,3660,420,3600,420C3540,420,3480,420,3420,420C3360,420,3300,420,3240,420C3180,420,3120,420,3060,420C3000,420,2940,420,2880,420C2820,420,2760,420,2700,420C2640,420,2580,420,2520,420C2460,420,2400,420,2340,420C2280,420,2220,420,2160,420C2100,420,2040,420,1980,420C1920,420,1860,420,1800,420C1740,420,1680,420,1620,420C1560,420,1500,420,1440,420C1380,420,1320,420,1260,420C1200,420,1140,420,1080,420C1020,420,960,420,900,420C840,420,780,420,720,420C660,420,600,420,540,420C480,420,420,420,360,420C300,420,240,420,180,420C120,420,60,420,30,420L0,420Z"/><defs><linearGradient id="sw-gradient-1" x1="0" x2="0" y1="1" y2="0"><stop stop-color="rgba(243, 193.534, 62, 1)" offset="0%"/><stop stop-color="rgba(255, 171.783, 11, 1)" offset="100%"/></linearGradient></defs><path style="transform:translate(0, 50px); opacity:0.9" fill="url(#sw-gradient-1)" d="M0,42L30,98C60,154,120,266,180,266C240,266,300,154,360,98C420,42,480,42,540,84C600,126,660,210,720,203C780,196,840,98,900,105C960,112,1020,224,1080,224C1140,224,1200,112,1260,119C1320,126,1380,252,1440,273C1500,294,1560,210,1620,147C1680,84,1740,42,1800,84C1860,126,1920,252,1980,287C2040,322,2100,266,2160,238C2220,210,2280,210,2340,182C2400,154,2460,98,2520,63C2580,28,2640,14,2700,63C2760,112,2820,224,2880,231C2940,238,3000,140,3060,147C3120,154,3180,266,3240,273C3300,280,3360,182,3420,140C3480,98,3540,112,3600,140C3660,168,3720,210,3780,231C3840,252,3900,252,3960,217C4020,182,4080,112,4140,119C4200,126,4260,210,4290,252L4320,294L4320,420L4290,420C4260,420,4200,420,4140,420C4080,420,4020,420,3960,420C3900,420,3840,420,3780,420C3720,420,3660,420,3600,420C3540,420,3480,420,3420,420C3360,420,3300,420,3240,420C3180,420,3120,420,3060,420C3000,420,2940,420,2880,420C2820,420,2760,420,2700,420C2640,420,2580,420,2520,420C2460,420,2400,420,2340,420C2280,420,2220,420,2160,420C2100,420,2040,420,1980,420C1920,420,1860,420,1800,420C1740,420,1680,420,1620,420C1560,420,1500,420,1440,420C1380,420,1320,420,1260,420C1200,420,1140,420,1080,420C1020,420,960,420,900,420C840,420,780,420,720,420C660,420,600,420,540,420C480,420,420,420,360,420C300,420,240,420,180,420C120,420,60,420,30,420L0,420Z"/></svg>